<svg viewBox="0 0 1600 900" xmlns="http://www.w3.org/2000/svg" role="img" aria-labelledby="title desc">
  <title id="title">Level 1 geographic map: Netherlands and direct neighbours</title>
  <desc id="desc">Boundaries sourced from OpenStreetMap administrative polygons and simplified for slide rendering.</desc>
  <defs><style>.sea{fill:#e9f2ff}.country{fill:#f6f9ff;stroke:#7f99c9;stroke-width:2}.nl{fill:#ffd7a3;stroke:#a55e00;stroke-width:2.8}.txt{font:600 22px Inter,Arial,sans-serif;fill:#122d63}</style></defs>
  <rect class="sea" width="1600" height="900"/>
  <g transform="translate(-100,-40) scale(1.12)">
  <path class="country" d="M 747.6,476.8 747.1,479.5 741.9,478.4 743.8,476.4 745.1,477.9 747.6,476.8 Z"/>
  <path class="country" d="M 748.3,478.6 748.6,478.2 748.7,478.5 748.3,478.6 Z"/>
  <path class="country" d="M 116.7,507.3 287.8,458.5 341.0,476.1 373.7,511.4 398.5,511.1 395.5,504.0 414.0,500.8 487.3,519.1 556.5,503.0 575.3,492.5 569.3,489.1 622.2,490.8 609.3,476.5 633.2,471.0 651.1,471.9 647.9,480.6 674.1,480.7 708.1,466.5 723.8,470.6 719.2,476.1 723.7,480.7 706.3,482.0 710.8,483.0 738.1,482.0 743.3,485.6 764.0,477.0 772.5,469.5 788.8,479.1 780.5,485.7 796.1,499.1 822.8,500.9 821.8,508.5 890.5,502.6 901.6,515.2 974.7,528.7 941.0,560.3 950.7,562.0 922.3,575.9 931.7,595.5 1015.2,596.0 1039.9,602.1 1058.5,611.8 1059.0,612.5 1058.9,612.8 1055.8,614.6 1056.7,615.8 1067.3,614.2 1076.1,615.4 1078.2,617.6 1076.8,619.5 1068.7,628.6 1068.3,628.9 1066.7,629.3 1066.5,630.2 1066.0,630.5 1062.4,630.7 1061.7,631.9 1059.4,633.2 1059.1,634.7 1097.3,642.0 1095.2,660.7 1110.7,670.5 1086.2,671.1 1053.8,685.7 1058.0,694.9 1044.4,703.9 1035.7,696.9 1001.4,696.5 965.5,724.2 969.7,730.0 954.7,733.1 944.9,744.2 956.9,748.3 945.8,755.1 982.4,776.6 978.8,799.9 879.5,813.2 868.9,796.1 840.1,793.4 845.1,786.0 829.3,778.8 803.5,779.3 761.5,760.8 726.3,762.1 735.7,742.1 711.0,731.6 732.6,699.8 719.4,697.1 689.2,709.9 687.2,727.1 625.7,737.2 564.3,734.2 549.0,722.9 572.5,713.7 564.8,703.2 546.9,702.9 566.9,679.2 549.0,681.9 521.4,664.3 452.9,665.7 443.6,674.0 418.3,640.5 339.3,635.5 332.6,605.2 305.2,589.9 256.0,596.5 244.6,606.8 216.0,601.0 198.2,585.9 177.7,586.0 166.6,567.7 177.1,562.9 116.7,507.3 Z"/>
  <path class="country" d="M 722.2,476.2 722.5,476.2 722.4,476.2 722.2,476.2 Z"/>
  <path class="country" d="M 723.5,481.5 723.4,481.3 723.6,481.5 723.5,481.5 Z"/>
  <path class="country" d="M 729.8,482.3 730.0,482.1 730.2,482.3 729.8,482.3 Z"/>
  <path class="country" d="M 731.6,481.9 731.9,481.7 732.0,481.8 731.6,481.9 Z"/>
  <path class="country" d="M 735.5,480.5 735.7,480.2 736.2,480.4 735.5,480.5 Z"/>
  <path class="country" d="M 742.6,477.0 742.8,476.9 742.7,477.0 742.6,477.0 Z"/>
  <path class="country" d="M 744.1,476.5 744.7,476.7 744.8,476.7 744.1,476.5 Z"/>
  <path class="country" d="M 745.2,483.7 747.0,482.9 747.1,483.6 745.2,483.7 Z"/>
  <path class="country" d="M 745.2,476.3 745.1,476.1 745.3,476.2 745.2,476.3 Z"/>
  <path class="country" d="M 745.7,476.1 745.7,475.8 746.0,476.0 745.7,476.1 Z"/>
  <path class="country" d="M 746.0,476.5 746.4,476.2 746.6,476.4 746.0,476.5 Z"/>
  <path class="country" d="M 746.3,476.0 750.4,475.3 751.2,475.6 748.1,476.7 746.3,476.0 Z"/>
  <path class="country" d="M 747.8,477.0 748.0,477.1 748.1,477.3 747.8,477.0 Z"/>
  <path class="country" d="M 748.4,477.6 748.0,477.7 748.0,477.7 748.4,477.6 Z"/>
  <path class="country" d="M 748.2,475.0 748.4,474.9 748.6,475.0 748.2,475.0 Z"/>
  <path class="country" d="M 748.2,477.8 748.8,477.6 748.4,478.0 748.2,477.8 Z"/>
  <path class="country" d="M 748.6,476.7 748.6,476.7 748.3,476.7 748.6,476.7 Z"/>
  <path class="country" d="M 748.7,475.4 749.2,475.3 749.3,475.4 748.7,475.4 Z"/>
  <path class="country" d="M 750.5,477.0 749.9,476.6 750.5,476.8 750.5,477.0 Z"/>
  <path class="country" d="M 750.3,475.3 750.5,475.2 750.3,475.3 750.3,475.3 Z"/>
  <path class="country" d="M 1145.7,829.9 1125.3,818.5 1101.1,818.0 1098.4,807.5 1116.0,783.9 1138.3,774.1 1141.3,759.3 1089.9,754.3 1038.1,716.0 1044.9,697.2 1058.0,694.9 1053.8,685.7 1111.3,668.4 1095.2,660.7 1097.3,642.0 1059.1,634.7 1059.4,633.2 1061.7,631.9 1062.4,630.7 1066.0,630.5 1066.5,630.2 1066.7,629.3 1068.3,628.9 1068.7,628.6 1076.8,619.5 1078.2,617.6 1076.3,615.5 1020.1,602.3 1004.1,588.5 1028.7,580.1 1033.6,567.3 1014.8,564.9 1016.9,556.5 984.9,558.0 977.4,545.6 999.9,547.6 1053.7,526.3 1044.7,523.7 1051.2,520.1 1030.7,524.0 1028.3,511.7 1066.4,491.4 1062.8,465.0 1033.0,449.0 1039.6,440.3 999.2,426.1 1008.4,420.6 996.7,411.4 1026.0,404.1 1051.6,408.4 1035.9,399.5 1049.0,397.3 1111.1,410.6 1107.0,402.7 1189.0,398.9 1215.4,387.1 1182.2,368.9 1273.0,340.4 1264.3,330.5 1275.7,316.4 1254.7,299.8 1243.4,305.7 1182.9,296.9 1178.8,285.3 1200.1,283.9 1186.0,272.5 1196.6,269.0 1271.6,269.8 1279.4,234.1 1311.6,207.0 1302.1,184.3 1314.1,177.0 1305.2,153.8 1239.7,149.7 1228.7,130.9 1112.4,103.8 1095.9,83.0 1132.0,70.0 1530.0,70.0 1530.0,830.0 1145.7,829.9 Z"/>
  <path class="country" d="M 1055.8,614.4 1057.8,611.7 1058.9,612.6 1055.8,614.4 Z"/>
  <path class="country" d="M 1055.3,618.6 1067.7,614.3 1078.1,617.6 1055.3,618.6 Z"/>
  <path class="country" d="M 1053.4,630.2 1066.1,624.4 1069.9,625.0 1068.6,628.6 1062.4,630.5 1059.3,633.0 1059.2,633.7 1053.4,630.2 Z"/>
  <path class="country" d="M 1056.7,635.4 1058.9,634.6 1059.6,635.3 1061.3,635.8 1061.5,636.2 1056.7,635.4 Z"/>
  <path class="country" d="M 1071.3,623.2 1071.8,623.1 1071.8,623.3 1071.3,623.2 Z"/>
  <path class="country" d="M 944.9,744.2 951.9,740.9 954.7,733.1 970.1,729.7 965.5,724.2 975.7,721.4 978.2,718.4 974.3,716.2 982.4,712.7 984.4,707.0 1000.8,703.7 1001.4,696.5 1016.5,694.8 1018.6,698.3 1026.0,699.9 1035.7,696.9 1041.4,700.4 1038.1,702.8 1044.5,704.1 1039.1,713.5 1042.4,713.7 1038.2,716.1 1046.5,722.5 1042.4,723.2 1047.4,724.8 1044.5,726.6 1053.1,729.0 1054.4,734.3 1057.4,731.6 1059.4,735.3 1065.7,735.0 1064.3,739.6 1068.2,743.6 1087.4,748.8 1091.2,754.6 1100.4,752.1 1116.7,759.0 1127.0,757.0 1136.9,760.5 1140.8,759.0 1135.6,762.7 1138.7,767.5 1134.3,769.2 1138.4,774.1 1133.1,773.8 1135.6,776.1 1117.0,783.6 1119.5,785.7 1114.8,791.9 1103.6,796.7 1105.0,799.4 1099.1,800.0 1105.2,802.9 1098.9,807.4 1101.6,819.7 1069.9,810.1 1042.0,813.8 1035.3,820.9 1024.7,818.5 1020.7,821.7 1005.9,821.2 1003.4,814.2 977.2,812.7 969.8,809.3 970.0,805.4 963.0,805.7 978.8,799.9 972.7,796.2 987.5,788.7 988.2,784.7 977.0,782.3 982.4,776.6 976.9,773.5 967.4,774.1 968.9,770.1 958.5,761.6 949.2,762.0 945.8,755.1 950.6,752.5 947.4,751.6 951.1,751.2 949.4,748.5 956.8,747.5 944.9,744.2 Z"/>
  <path class="nl" d="M 287.9,458.2 339.7,413.4 425.8,384.3 449.4,361.4 499.1,349.2 540.8,329.1 584.8,278.7 605.4,229.7 596.4,214.3 602.9,197.7 653.8,150.2 737.0,117.4 907.4,91.8 978.3,92.7 1093.2,79.6 1112.4,103.8 1168.0,108.6 1234.9,128.5 1259.3,151.8 1304.2,150.8 1314.1,177.0 1302.1,184.3 1311.6,207.0 1279.4,234.1 1271.6,269.8 1196.6,269.0 1186.0,272.5 1200.1,283.9 1178.8,285.3 1182.9,296.9 1196.6,300.7 1243.4,305.7 1255.8,300.2 1275.7,316.4 1264.3,330.5 1273.0,340.4 1182.2,368.9 1180.6,374.0 1215.8,383.3 1191.6,398.4 1179.6,395.1 1127.3,406.2 1107.0,402.7 1109.8,410.7 1048.5,397.3 1035.9,399.5 1051.6,408.4 1026.0,404.1 996.7,411.4 1008.4,420.6 999.2,426.1 1039.6,440.3 1033.0,449.0 1065.7,471.6 1066.4,491.4 1027.2,515.5 1030.7,524.0 1051.2,520.1 1044.7,523.7 1053.7,526.3 999.9,547.6 977.3,544.8 984.9,558.0 1016.9,556.5 1014.8,564.9 1033.6,567.3 1028.7,580.1 1004.3,587.8 1015.5,596.1 954.3,591.1 933.2,595.8 934.6,586.2 921.0,580.2 950.7,562.0 941.0,560.3 968.9,536.8 968.9,525.6 901.6,515.2 890.5,502.6 821.8,508.5 822.8,500.9 796.1,499.1 780.5,485.7 788.8,479.1 772.5,469.5 764.0,477.0 743.3,485.6 738.1,482.0 710.8,483.0 706.3,482.0 705.3,479.2 722.4,481.6 723.7,480.7 719.2,476.1 723.8,470.6 708.1,466.5 674.1,480.7 647.9,480.6 651.1,471.9 633.2,471.0 609.3,476.5 622.2,490.8 569.3,489.1 575.3,492.5 556.5,503.0 487.3,519.1 414.0,500.8 395.5,504.0 398.5,511.1 373.7,511.4 360.9,505.8 362.9,494.7 341.0,476.1 287.9,458.2 Z"/>
  <path class="nl" d="M 731.3,482.6 730.9,482.3 731.5,482.4 731.3,482.6 Z"/>
  <path class="nl" d="M 744.0,478.0 744.1,477.3 744.4,477.3 744.0,478.0 Z"/>
  <path class="nl" d="M 745.8,477.8 746.1,477.6 746.1,477.8 745.8,477.8 Z"/>
  <path class="nl" d="M 745.9,478.1 745.9,478.2 745.7,478.1 745.9,478.1 Z"/>
  <path class="nl" d="M 746.2,478.6 745.9,478.3 746.2,478.2 746.2,478.6 Z"/>
  <path class="nl" d="M 746.6,478.8 746.9,479.0 746.6,479.0 746.6,478.8 Z"/>
  <path class="nl" d="M 746.9,478.1 747.2,478.3 746.9,478.3 746.9,478.1 Z"/>
  <path class="nl" d="M 748.4,476.0 748.6,476.0 748.4,476.3 748.4,476.0 Z"/>
  <text class="txt" x="317.5" y="173.6">North Sea</text>
  <text class="txt" x="812.4" y="346.4">Netherlands</text>
  <text class="txt" x="639.2" y="588.2">Belgium</text>
  <text class="txt" x="1233.1" y="450.0">Germany</text>
  <text class="txt" x="1047.5" y="774.7">Luxembourg</text>
  <circle cx="739.1" cy="317.4" r="5" fill="#164194"/>
  <text class="txt" x="747.1" y="309.4">Amsterdam</text>
  </g>
</svg>
