<svg viewBox="0 0 1600 900" xmlns="http://www.w3.org/2000/svg" role="img" aria-labelledby="title desc">
<title id="title">Level 1 geographic map: Netherlands and direct neighbours</title>
<desc id="desc">Boundaries sourced from OpenStreetMap administrative polygons and simplified for slide rendering.</desc>
<defs><style>.sea{fill:#e9f2ff}.country{fill:#f6f9ff;stroke:#7f99c9;stroke-width:2}.nl{fill:#ffd7a3;stroke:#a55e00;stroke-width:2.8}.txt{font:600 22px Inter,Arial,sans-serif;fill:#122d63}.title{font:700 34px Inter,Arial,sans-serif;fill:#0b1f4d}</style></defs>
<rect class="sea" width="1600" height="900"/>
<text class="title" x="60" y="58">Zoom 1 — Netherlands + direct neighbours (official boundary data)</text>
<path class="country" d="M 747.57 476.82 L 747.08 479.46 L 741.85 478.44 L 743.84 476.36 L 745.14 477.89 L 747.57 476.82 Z"/>
<path class="country" d="M 748.28 478.56 L 748.58 478.25 L 748.72 478.48 L 748.28 478.56 Z"/>
<path class="country" d="M 116.75 507.29 L 287.80 458.50 L 340.98 476.05 L 362.87 494.70 L 356.65 499.23 L 361.53 501.36 L 358.47 502.13 L 360.94 505.75 L 373.75 511.38 L 398.52 511.14 L 395.51 504.04 L 411.94 504.08 L 413.97 500.79 L 459.56 508.06 L 464.81 509.41 L 463.74 516.67 L 487.84 515.12 L 487.30 519.06 L 519.07 511.31 L 530.71 511.39 L 556.53 503.05 L 575.32 492.50 L 569.26 489.06 L 598.20 488.41 L 599.84 491.87 L 610.59 492.43 L 622.16 490.79 L 610.36 480.90 L 613.58 477.29 L 609.29 476.47 L 633.20 471.05 L 651.05 471.87 L 646.55 475.99 L 647.91 480.57 L 657.64 478.87 L 674.12 480.74 L 681.14 479.99 L 680.38 476.88 L 708.14 466.50 L 723.75 470.60 L 724.28 474.34 L 719.17 476.15 L 720.36 480.71 L 723.65 480.67 L 722.42 481.57 L 705.34 479.22 L 706.27 481.97 L 710.75 482.99 L 738.13 482.01 L 743.32 485.63 L 764.02 476.96 L 765.55 472.06 L 772.48 469.52 L 774.21 472.26 L 782.51 472.23 L 788.76 479.13 L 780.50 485.67 L 795.47 493.69 L 796.13 499.14 L 812.44 497.90 L 822.81 500.92 L 818.80 507.30 L 821.75 508.49 L 846.14 508.20 L 848.54 506.00 L 866.17 508.33 L 882.41 501.79 L 890.51 502.65 L 900.58 507.62 L 901.57 515.23 L 924.41 519.49 L 925.72 521.73 L 948.25 521.05 L 955.09 522.81 L 955.32 527.50 L 966.86 524.65 L 974.65 528.66 L 963.28 533.18 L 968.87 536.82 L 959.86 537.84 L 960.93 543.07 L 954.30 542.87 L 950.55 547.59 L 955.01 549.61 L 952.84 553.68 L 941.00 560.28 L 950.66 561.99 L 941.74 569.33 L 935.97 569.05 L 930.99 574.28 L 922.28 575.86 L 924.72 584.71 L 934.58 586.19 L 935.68 592.07 L 931.66 595.52 L 945.80 595.60 L 954.31 591.08 L 962.75 595.77 L 982.25 593.34 L 986.00 596.58 L 1015.24 596.01 L 1020.35 597.59 L 1020.16 602.30 L 1021.34 600.54 L 1039.87 602.07 L 1051.38 611.99 L 1056.87 611.56 L 1057.96 611.63 L 1058.53 611.84 L 1058.98 612.51 L 1058.90 612.77 L 1055.79 614.62 L 1056.70 615.76 L 1067.35 614.21 L 1076.13 615.39 L 1078.17 617.57 L 1076.84 619.50 L 1068.74 628.57 L 1068.27 628.95 L 1066.65 629.34 L 1066.47 630.21 L 1065.97 630.51 L 1062.40 630.67 L 1061.74 631.93 L 1059.41 633.18 L 1059.10 634.75 L 1059.66 635.26 L 1060.60 635.43 L 1061.64 636.01 L 1066.42 640.98 L 1077.07 639.22 L 1097.27 642.02 L 1094.57 646.52 L 1102.35 647.69 L 1103.75 650.57 L 1095.20 660.68 L 1109.19 666.78 L 1110.69 670.52 L 1100.26 673.65 L 1092.76 670.47 L 1086.18 671.06 L 1079.26 680.34 L 1053.83 685.70 L 1051.54 688.41 L 1057.07 690.90 L 1057.97 694.92 L 1046.45 695.82 L 1043.01 699.85 L 1048.57 701.90 L 1044.44 703.94 L 1038.07 702.84 L 1041.44 700.44 L 1035.69 696.91 L 1026.04 699.88 L 1018.58 698.30 L 1016.47 694.79 L 1001.35 696.55 L 1000.77 703.67 L 984.43 706.99 L 982.42 712.69 L 974.27 716.19 L 978.15 718.43 L 975.66 721.38 L 965.55 724.15 L 969.70 730.01 L 954.67 733.14 L 951.94 740.91 L 944.94 744.17 L 956.90 748.31 L 949.45 748.49 L 951.13 751.17 L 947.45 751.83 L 950.53 752.89 L 945.83 755.09 L 949.75 762.39 L 958.46 761.64 L 968.41 769.62 L 967.35 774.11 L 976.92 773.53 L 982.37 776.57 L 976.20 781.56 L 988.23 784.66 L 987.50 788.71 L 972.67 796.16 L 978.85 799.89 L 965.44 804.72 L 953.74 801.79 L 947.77 805.91 L 922.06 803.98 L 914.09 811.70 L 900.60 807.68 L 879.53 813.23 L 873.62 809.63 L 878.45 808.25 L 872.11 803.67 L 875.99 801.16 L 871.18 800.65 L 868.90 796.13 L 850.02 790.10 L 840.11 793.44 L 838.36 790.22 L 845.08 786.04 L 829.33 778.77 L 822.95 780.71 L 803.51 779.31 L 803.97 776.15 L 794.02 776.02 L 786.24 767.22 L 765.00 764.01 L 761.46 760.75 L 739.66 763.40 L 726.26 762.11 L 732.29 757.58 L 725.15 749.15 L 728.86 749.35 L 735.69 742.09 L 725.51 735.30 L 711.21 733.62 L 711.00 731.57 L 723.66 719.51 L 718.19 714.98 L 722.83 714.75 L 725.68 708.89 L 731.31 711.20 L 729.98 705.84 L 737.42 702.54 L 732.59 699.81 L 721.42 699.91 L 719.36 697.12 L 704.03 702.80 L 701.46 707.02 L 689.17 709.86 L 683.58 714.79 L 688.65 717.21 L 684.87 721.65 L 687.16 727.13 L 659.39 729.20 L 644.99 734.95 L 625.67 737.21 L 592.02 731.62 L 564.30 734.20 L 564.28 731.99 L 550.20 729.99 L 555.78 727.23 L 549.02 722.94 L 555.57 717.85 L 563.49 717.83 L 572.55 713.66 L 564.09 707.98 L 564.79 703.19 L 546.88 702.94 L 553.85 698.21 L 552.65 689.47 L 569.90 682.89 L 566.94 679.21 L 555.66 676.45 L 552.36 678.77 L 556.91 681.54 L 548.96 681.90 L 544.67 674.00 L 534.95 672.88 L 521.41 664.32 L 490.91 669.89 L 477.26 665.35 L 452.85 665.74 L 449.08 672.56 L 443.66 671.18 L 446.18 673.68 L 443.65 674.00 L 430.61 662.70 L 434.99 656.86 L 431.99 647.64 L 418.30 640.48 L 391.86 642.29 L 396.63 635.92 L 385.36 634.18 L 379.05 638.86 L 361.09 641.53 L 339.34 635.53 L 337.14 623.43 L 327.37 612.60 L 333.60 609.42 L 330.52 607.22 L 332.56 605.23 L 318.68 603.38 L 305.18 589.89 L 295.77 589.13 L 289.80 592.83 L 281.69 591.54 L 255.95 596.46 L 244.57 606.78 L 230.38 601.48 L 216.03 601.01 L 214.28 596.56 L 207.71 594.63 L 198.22 585.86 L 177.66 585.95 L 173.12 579.90 L 168.74 579.72 L 172.17 576.52 L 170.98 569.17 L 166.55 567.69 L 177.13 562.93 L 170.72 555.16 L 162.54 553.07 L 158.72 541.22 L 116.75 507.29 Z"/>
<path class="country" d="M 722.24 476.18 L 722.46 476.19 L 722.35 476.25 L 722.24 476.18 Z"/>
<path class="country" d="M 723.50 481.53 L 723.40 481.29 L 723.63 481.45 L 723.50 481.53 Z"/>
<path class="country" d="M 729.80 482.27 L 729.97 482.06 L 730.17 482.25 L 729.80 482.27 Z"/>
<path class="country" d="M 731.61 481.87 L 731.91 481.69 L 732.03 481.77 L 731.61 481.87 Z"/>
<path class="country" d="M 735.50 480.49 L 735.69 480.18 L 736.23 480.38 L 735.50 480.49 Z"/>
<path class="country" d="M 742.64 477.04 L 742.81 476.94 L 742.72 477.04 L 742.64 477.04 Z"/>
<path class="country" d="M 744.12 476.54 L 744.73 476.67 L 744.80 476.71 L 744.12 476.54 Z"/>
<path class="country" d="M 745.19 483.66 L 746.99 482.94 L 747.14 483.62 L 745.19 483.66 Z"/>
<path class="country" d="M 745.16 476.28 L 745.10 476.09 L 745.34 476.23 L 745.16 476.28 Z"/>
<path class="country" d="M 745.66 476.13 L 745.74 475.84 L 746.01 476.04 L 745.66 476.13 Z"/>
<path class="country" d="M 746.03 476.49 L 746.37 476.21 L 746.57 476.36 L 746.03 476.49 Z"/>
<path class="country" d="M 746.33 475.99 L 750.37 475.30 L 751.19 475.63 L 748.13 476.74 L 746.33 475.99 Z"/>
<path class="country" d="M 747.84 477.01 L 748.01 477.12 L 748.10 477.33 L 747.84 477.01 Z"/>
<path class="country" d="M 748.39 477.64 L 748.00 477.72 L 747.97 477.68 L 748.39 477.64 Z"/>
<path class="country" d="M 748.19 474.99 L 748.44 474.95 L 748.55 475.00 L 748.19 474.99 Z"/>
<path class="country" d="M 748.22 477.75 L 748.81 477.61 L 748.37 477.99 L 748.22 477.75 Z"/>
<path class="country" d="M 748.56 476.68 L 748.61 476.75 L 748.28 476.72 L 748.56 476.68 Z"/>
<path class="country" d="M 748.73 475.45 L 749.22 475.30 L 749.25 475.38 L 748.73 475.45 Z"/>
<path class="country" d="M 750.48 477.01 L 749.94 476.65 L 750.46 476.78 L 750.48 477.01 Z"/>
<path class="country" d="M 750.27 475.26 L 750.46 475.17 L 750.35 475.25 L 750.27 475.26 Z"/>
<path class="country" d="M 1530.00 830.00 L 1143.29 828.36 L 1146.93 825.72 L 1125.29 818.52 L 1101.08 817.98 L 1098.38 807.51 L 1104.81 802.99 L 1098.67 800.07 L 1104.69 799.38 L 1103.20 796.74 L 1114.55 791.85 L 1119.19 785.76 L 1116.05 783.91 L 1135.62 775.85 L 1132.95 773.68 L 1138.31 774.13 L 1134.10 769.24 L 1138.56 767.45 L 1135.51 762.59 L 1141.34 759.31 L 1136.71 760.65 L 1126.89 757.05 L 1116.81 759.12 L 1100.40 752.15 L 1089.88 754.27 L 1087.48 748.97 L 1068.14 743.61 L 1064.23 739.54 L 1065.75 734.99 L 1059.25 735.32 L 1057.46 731.74 L 1054.31 734.39 L 1053.02 729.02 L 1044.43 726.66 L 1047.35 724.82 L 1042.40 723.17 L 1046.44 722.46 L 1038.12 716.04 L 1042.31 713.69 L 1038.99 713.48 L 1043.25 710.24 L 1042.35 705.41 L 1048.57 701.90 L 1043.01 699.85 L 1046.88 698.63 L 1044.90 697.16 L 1057.97 694.92 L 1057.07 690.90 L 1051.54 688.41 L 1053.79 685.72 L 1079.26 680.34 L 1086.18 671.06 L 1092.76 670.47 L 1100.26 673.65 L 1111.32 668.40 L 1095.20 660.68 L 1103.75 650.57 L 1102.35 647.69 L 1094.57 646.52 L 1097.27 642.02 L 1077.07 639.22 L 1066.42 640.98 L 1061.64 636.01 L 1060.60 635.43 L 1059.66 635.26 L 1059.10 634.75 L 1059.41 633.18 L 1061.74 631.93 L 1062.40 630.67 L 1065.97 630.51 L 1066.47 630.21 L 1066.65 629.34 L 1068.27 628.95 L 1068.74 628.57 L 1076.84 619.50 L 1078.17 617.57 L 1076.26 615.46 L 1075.74 615.28 L 1075.07 615.24 L 1071.13 615.69 L 1068.31 614.35 L 1067.35 614.21 L 1056.55 615.71 L 1055.79 614.62 L 1058.90 612.77 L 1058.98 612.51 L 1058.53 611.84 L 1057.96 611.63 L 1056.87 611.56 L 1051.38 611.99 L 1038.72 601.61 L 1020.10 602.28 L 1020.35 597.59 L 1014.88 594.51 L 1017.18 592.64 L 1004.12 588.52 L 1016.53 585.74 L 1015.03 580.19 L 1024.06 578.29 L 1028.69 580.14 L 1032.14 575.67 L 1028.94 572.13 L 1033.62 567.31 L 1014.84 564.92 L 1011.63 561.10 L 1016.90 556.53 L 984.87 557.98 L 986.96 553.26 L 977.45 545.57 L 988.86 542.08 L 995.03 547.57 L 999.89 547.64 L 1009.79 539.08 L 1033.10 530.31 L 1053.75 526.27 L 1044.69 523.70 L 1055.06 521.45 L 1051.21 520.06 L 1030.68 523.99 L 1027.16 515.54 L 1031.63 515.18 L 1028.32 511.74 L 1041.15 506.18 L 1052.05 496.12 L 1066.36 491.40 L 1063.40 486.34 L 1066.43 484.50 L 1061.13 484.63 L 1065.69 472.68 L 1062.81 464.96 L 1032.96 448.99 L 1039.56 440.33 L 1018.34 437.21 L 1016.79 431.23 L 1021.46 429.81 L 999.24 426.14 L 998.46 424.27 L 1008.38 420.59 L 996.74 411.39 L 1019.17 408.09 L 1026.05 404.15 L 1051.56 408.42 L 1051.66 404.81 L 1035.94 399.48 L 1049.00 397.28 L 1062.35 403.53 L 1079.56 402.65 L 1086.11 406.98 L 1111.11 410.61 L 1111.54 406.24 L 1106.99 402.68 L 1127.26 406.16 L 1179.60 395.15 L 1189.00 398.86 L 1205.57 393.06 L 1208.03 388.04 L 1215.36 387.11 L 1214.89 382.03 L 1180.55 374.03 L 1182.24 368.85 L 1195.34 366.76 L 1198.55 360.39 L 1222.03 360.10 L 1235.05 350.52 L 1245.73 349.64 L 1254.16 341.99 L 1272.96 340.37 L 1264.34 330.48 L 1275.68 320.13 L 1275.65 316.38 L 1254.73 299.77 L 1243.36 305.70 L 1221.74 301.51 L 1196.61 300.74 L 1182.95 296.91 L 1184.88 290.92 L 1178.83 285.34 L 1200.06 283.90 L 1188.20 279.24 L 1190.31 274.69 L 1186.04 272.52 L 1196.58 268.96 L 1226.39 268.07 L 1267.59 271.62 L 1271.59 269.77 L 1279.39 234.11 L 1302.71 218.27 L 1311.61 206.97 L 1307.98 188.59 L 1302.07 184.30 L 1308.19 177.68 L 1314.09 177.04 L 1309.28 175.63 L 1311.50 171.09 L 1305.24 153.76 L 1270.73 155.20 L 1239.69 149.65 L 1232.61 145.72 L 1228.72 130.93 L 1179.51 122.39 L 1172.86 117.01 L 1165.89 116.54 L 1162.29 112.55 L 1146.77 107.56 L 1112.44 103.81 L 1095.94 83.03 L 1111.12 75.56 L 1131.99 70.00 L 1530.00 70.00 L 1530.00 830.00 Z"/>
<path class="country" d="M 1051.57 612.03 L 1057.78 611.66 L 1058.88 612.57 L 1055.84 614.45 L 1051.57 612.03 Z"/>
<path class="country" d="M 1051.60 615.19 L 1055.72 614.61 L 1056.05 615.52 L 1056.44 615.73 L 1057.12 615.87 L 1064.96 615.77 L 1067.65 614.28 L 1071.10 615.74 L 1075.91 615.41 L 1078.10 617.59 L 1055.33 618.62 L 1051.60 615.19 Z"/>
<path class="country" d="M 1053.43 630.24 L 1066.08 624.38 L 1069.87 624.96 L 1068.56 628.58 L 1062.44 630.54 L 1059.33 633.04 L 1059.20 633.74 L 1053.43 630.24 Z"/>
<path class="country" d="M 1056.66 635.43 L 1058.94 634.63 L 1059.57 635.27 L 1061.31 635.84 L 1061.49 636.22 L 1056.66 635.43 Z"/>
<path class="country" d="M 1071.26 623.18 L 1071.83 623.09 L 1071.76 623.28 L 1071.26 623.18 Z"/>
<path class="country" d="M 944.94 744.16 L 951.94 740.91 L 951.93 738.20 L 954.70 737.12 L 954.67 733.14 L 962.59 732.86 L 963.90 731.18 L 970.12 729.66 L 970.78 728.19 L 966.47 726.72 L 965.55 724.15 L 975.66 721.38 L 974.72 720.10 L 978.15 718.43 L 974.27 716.19 L 975.86 714.41 L 982.42 712.69 L 984.43 706.99 L 1000.77 703.67 L 1001.35 696.55 L 1016.47 694.79 L 1018.58 698.30 L 1026.04 699.88 L 1029.84 699.33 L 1029.94 696.86 L 1035.69 696.91 L 1039.98 698.15 L 1038.85 699.58 L 1041.44 700.44 L 1038.07 702.84 L 1044.52 704.14 L 1042.01 706.30 L 1043.95 708.49 L 1041.42 708.90 L 1043.32 710.21 L 1040.10 710.51 L 1039.10 713.48 L 1042.36 713.69 L 1038.24 716.14 L 1041.05 716.03 L 1040.44 717.26 L 1043.64 719.43 L 1042.55 721.26 L 1046.49 722.45 L 1042.43 723.17 L 1047.43 724.80 L 1044.51 726.64 L 1053.10 729.04 L 1051.22 731.44 L 1054.42 734.30 L 1056.81 733.91 L 1055.01 732.56 L 1057.45 731.62 L 1059.41 735.27 L 1061.22 734.10 L 1065.75 734.99 L 1063.92 735.95 L 1066.31 738.57 L 1064.32 739.59 L 1067.68 740.42 L 1068.27 741.47 L 1066.55 741.82 L 1068.20 743.60 L 1083.82 749.42 L 1087.37 748.82 L 1091.17 754.63 L 1094.77 752.46 L 1100.44 752.11 L 1108.91 757.14 L 1116.72 759.04 L 1122.74 758.90 L 1127.03 756.97 L 1136.93 760.48 L 1138.87 758.67 L 1140.85 758.99 L 1141.61 760.15 L 1135.58 762.68 L 1138.32 763.84 L 1136.58 765.38 L 1138.73 767.49 L 1134.26 769.22 L 1134.73 772.60 L 1138.44 774.13 L 1133.08 773.77 L 1135.59 776.05 L 1117.01 783.58 L 1116.04 784.77 L 1119.53 785.75 L 1114.84 791.89 L 1103.61 796.69 L 1104.95 799.45 L 1099.10 799.99 L 1105.20 802.94 L 1098.85 807.45 L 1101.54 812.21 L 1101.61 819.66 L 1083.64 816.15 L 1084.44 814.80 L 1081.79 815.34 L 1079.59 812.16 L 1069.89 810.15 L 1068.78 811.32 L 1063.24 811.64 L 1053.64 810.95 L 1048.42 812.45 L 1050.39 813.99 L 1045.54 814.99 L 1042.02 813.78 L 1040.89 817.31 L 1035.04 818.35 L 1035.28 820.86 L 1024.72 818.52 L 1020.68 821.73 L 1017.08 821.66 L 1017.29 820.37 L 1005.88 821.18 L 1007.39 819.41 L 1003.91 818.69 L 1003.44 814.21 L 995.52 812.56 L 977.24 812.74 L 969.77 809.28 L 969.38 808.10 L 972.18 807.56 L 970.02 805.37 L 962.96 805.66 L 978.85 799.89 L 977.17 798.82 L 978.42 797.47 L 973.24 797.71 L 972.67 796.16 L 979.78 793.99 L 981.60 789.76 L 987.50 788.71 L 986.02 786.57 L 988.23 784.66 L 977.03 782.31 L 977.11 779.39 L 982.37 776.57 L 976.92 773.53 L 967.35 774.11 L 968.86 770.07 L 965.26 768.86 L 958.46 761.64 L 949.24 762.05 L 948.77 758.34 L 946.84 757.29 L 948.05 756.67 L 945.83 755.09 L 950.59 752.49 L 947.42 751.63 L 951.13 751.17 L 949.45 748.49 L 954.55 749.28 L 956.78 747.46 L 944.94 744.16 Z"/>
<path class="nl" d="M 287.89 458.23 L 298.54 445.31 L 320.74 434.64 L 326.07 423.33 L 339.66 413.43 L 425.78 384.25 L 433.23 372.05 L 449.41 361.36 L 470.67 353.85 L 499.06 349.20 L 540.85 329.11 L 566.09 307.03 L 569.30 291.26 L 584.82 278.73 L 592.97 246.96 L 605.44 229.65 L 596.40 214.32 L 602.89 197.73 L 637.79 168.20 L 643.49 158.33 L 653.75 150.18 L 670.55 142.54 L 703.12 133.42 L 716.26 124.94 L 737.00 117.40 L 775.17 108.69 L 907.41 91.78 L 978.31 92.74 L 1021.83 86.42 L 1060.74 86.15 L 1093.17 79.60 L 1112.44 103.81 L 1163.80 110.07 L 1168.00 108.62 L 1222.56 127.22 L 1234.93 128.46 L 1259.26 151.78 L 1304.22 150.80 L 1311.50 171.09 L 1309.28 175.63 L 1314.09 177.04 L 1308.19 177.68 L 1302.07 184.30 L 1307.98 188.59 L 1311.61 206.97 L 1302.71 218.27 L 1279.39 234.11 L 1271.59 269.77 L 1267.59 271.62 L 1226.39 268.07 L 1196.58 268.96 L 1186.04 272.52 L 1190.31 274.69 L 1188.20 279.24 L 1200.06 283.90 L 1178.83 285.34 L 1184.88 290.92 L 1182.95 296.91 L 1196.61 300.74 L 1221.74 301.51 L 1243.36 305.70 L 1255.78 300.19 L 1260.46 306.79 L 1272.33 311.92 L 1275.65 316.38 L 1275.68 320.13 L 1264.34 330.48 L 1272.96 340.37 L 1254.16 341.99 L 1245.73 349.64 L 1235.05 350.52 L 1222.03 360.10 L 1198.55 360.39 L 1195.34 366.76 L 1182.24 368.85 L 1180.55 374.03 L 1196.67 376.00 L 1215.82 383.29 L 1215.36 387.11 L 1208.03 388.04 L 1205.57 393.06 L 1191.59 398.41 L 1179.60 395.15 L 1127.26 406.16 L 1106.99 402.68 L 1111.54 406.24 L 1109.77 410.75 L 1096.26 406.70 L 1086.11 406.98 L 1079.56 402.65 L 1062.35 403.53 L 1048.51 397.28 L 1035.94 399.48 L 1051.66 404.81 L 1051.56 408.42 L 1026.05 404.15 L 1019.17 408.09 L 996.74 411.39 L 1008.38 420.59 L 998.46 424.27 L 999.24 426.14 L 1021.46 429.81 L 1016.79 431.23 L 1018.34 437.21 L 1039.56 440.33 L 1032.96 448.99 L 1059.81 462.54 L 1065.66 471.60 L 1061.13 484.63 L 1066.43 484.50 L 1063.40 486.34 L 1066.36 491.40 L 1052.05 496.12 L 1041.15 506.18 L 1028.32 511.74 L 1031.63 515.18 L 1027.16 515.54 L 1030.68 523.99 L 1051.21 520.06 L 1055.06 521.45 L 1044.69 523.70 L 1053.75 526.27 L 1033.10 530.31 L 1009.79 539.08 L 999.89 547.64 L 995.03 547.57 L 988.86 542.08 L 977.26 544.81 L 980.35 550.53 L 986.96 553.26 L 984.87 557.98 L 1016.90 556.53 L 1011.63 561.10 L 1014.84 564.92 L 1033.64 567.33 L 1028.94 572.13 L 1032.14 575.67 L 1028.69 580.14 L 1024.06 578.29 L 1015.03 580.19 L 1016.53 585.74 L 1004.34 587.78 L 1017.18 592.64 L 1015.54 596.08 L 986.00 596.58 L 982.25 593.34 L 962.75 595.77 L 954.31 591.08 L 945.80 595.60 L 933.25 595.83 L 934.58 586.19 L 924.72 584.71 L 921.05 580.18 L 922.28 575.86 L 930.99 574.28 L 935.97 569.05 L 941.74 569.33 L 950.66 561.99 L 941.00 560.28 L 952.84 553.68 L 955.01 549.61 L 950.55 547.59 L 954.30 542.87 L 960.93 543.07 L 959.86 537.84 L 968.87 536.82 L 962.79 534.02 L 974.65 528.66 L 968.94 525.58 L 955.32 527.50 L 952.72 521.91 L 925.72 521.73 L 924.41 519.49 L 901.57 515.23 L 900.58 507.62 L 890.51 502.65 L 882.41 501.79 L 866.17 508.33 L 848.54 506.00 L 846.14 508.20 L 821.75 508.49 L 818.80 507.30 L 822.81 500.92 L 812.44 497.90 L 796.13 499.14 L 795.47 493.69 L 780.50 485.67 L 788.76 479.13 L 782.51 472.23 L 774.21 472.26 L 772.48 469.52 L 765.55 472.06 L 764.02 476.96 L 743.32 485.63 L 738.13 482.01 L 710.75 482.99 L 706.27 481.97 L 705.34 479.22 L 722.42 481.57 L 723.65 480.67 L 720.36 480.71 L 719.17 476.15 L 724.28 474.34 L 723.75 470.60 L 708.14 466.50 L 680.38 476.88 L 681.14 479.99 L 674.12 480.74 L 657.64 478.87 L 647.91 480.57 L 646.55 475.99 L 651.05 471.87 L 633.20 471.05 L 609.29 476.47 L 613.58 477.29 L 610.36 480.90 L 622.16 490.79 L 610.59 492.43 L 599.84 491.87 L 598.20 488.41 L 569.26 489.06 L 575.32 492.50 L 556.53 503.05 L 530.71 511.39 L 519.07 511.31 L 487.30 519.06 L 487.84 515.12 L 463.74 516.67 L 464.81 509.41 L 459.56 508.06 L 413.97 500.79 L 411.94 504.08 L 395.51 504.04 L 398.52 511.14 L 373.75 511.38 L 360.94 505.75 L 358.47 502.13 L 361.53 501.36 L 356.65 499.23 L 362.87 494.70 L 340.98 476.05 L 287.89 458.23 Z"/>
<path class="nl" d="M 731.30 482.56 L 730.85 482.34 L 731.48 482.38 L 731.30 482.56 Z"/>
<path class="nl" d="M 744.00 478.04 L 744.10 477.32 L 744.35 477.34 L 744.00 478.04 Z"/>
<path class="nl" d="M 745.79 477.85 L 746.15 477.63 L 746.11 477.84 L 745.79 477.85 Z"/>
<path class="nl" d="M 745.94 478.13 L 745.90 478.22 L 745.73 478.13 L 745.94 478.13 Z"/>
<path class="nl" d="M 746.24 478.60 L 745.89 478.25 L 746.22 478.25 L 746.24 478.60 Z"/>
<path class="nl" d="M 746.58 478.77 L 746.90 479.01 L 746.59 479.03 L 746.58 478.77 Z"/>
<path class="nl" d="M 746.89 478.06 L 747.24 478.28 L 746.91 478.30 L 746.89 478.06 Z"/>
<path class="nl" d="M 748.44 476.00 L 748.58 476.00 L 748.42 476.26 L 748.44 476.00 Z"/>
<text class="txt" x="317.46" y="173.64">North Sea</text>
<text class="txt" x="812.37" y="346.36">Netherlands</text>
<text class="txt" x="639.15" y="588.18">Belgium</text>
<text class="txt" x="1233.05" y="450.00">Germany</text>
<text class="txt" x="1047.46" y="774.73">Luxembourg</text>
<circle cx="739.13" cy="317.41" r="5" fill="#164194"/>
<text class="txt" x="747.13" y="309.41">Amsterdam</text>
</svg>