<svg viewBox="0 0 1600 900" xmlns="http://www.w3.org/2000/svg" role="img" aria-labelledby="title desc">
  <title id="title">Level 1 map: Netherlands only inside a C4 context box</title>
  <desc id="desc">A single-country context view showing only the Netherlands highlighted within a rectangular context boundary.</desc>
  <defs>
    <style>
      .sea{fill:#e9f2ff}
      .context-box{fill:none;stroke:#12326f;stroke-width:8}
      .nl{fill:#ffd7a3;stroke:#a55e00;stroke-width:4}
      .txt{font:700 30px Inter,Arial,sans-serif;fill:#122d63}
      .label{font:600 24px Inter,Arial,sans-serif;fill:#122d63}
    </style>
  </defs>

  <rect class="sea" width="1600" height="900"/>
  <rect class="context-box" x="120" y="80" width="1360" height="740" rx="0"/>

  <g transform="translate(80,20) scale(1.06)">
    <path class="nl" d="M 287.9,458.2 339.7,413.4 425.8,384.3 449.4,361.4 499.1,349.2 540.8,329.1 584.8,278.7 605.4,229.7 596.4,214.3 602.9,197.7 653.8,150.2 737.0,117.4 907.4,91.8 978.3,92.7 1093.2,79.6 1112.4,103.8 1168.0,108.6 1234.9,128.5 1259.3,151.8 1304.2,150.8 1314.1,177.0 1302.1,184.3 1311.6,207.0 1279.4,234.1 1271.6,269.8 1196.6,269.0 1186.0,272.5 1200.1,283.9 1178.8,285.3 1182.9,296.9 1196.6,300.7 1243.4,305.7 1255.8,300.2 1275.7,316.4 1264.3,330.5 1273.0,340.4 1182.2,368.9 1180.6,374.0 1215.8,383.3 1191.6,398.4 1179.6,395.1 1127.3,406.2 1107.0,402.7 1109.8,410.7 1048.5,397.3 1035.9,399.5 1051.6,408.4 1026.0,404.1 996.7,411.4 1008.4,420.6 999.2,426.1 1039.6,440.3 1033.0,449.0 1065.7,471.6 1066.4,491.4 1027.2,515.5 1030.7,524.0 1051.2,520.1 1044.7,523.7 1053.7,526.3 999.9,547.6 977.3,544.8 984.9,558.0 1016.9,556.5 1014.8,564.9 1033.6,567.3 1028.7,580.1 1004.3,587.8 1015.5,596.1 954.3,591.1 933.2,595.8 934.6,586.2 921.0,580.2 950.7,562.0 941.0,560.3 968.9,536.8 968.9,525.6 901.6,515.2 890.5,502.6 821.8,508.5 822.8,500.9 796.1,499.1 780.5,485.7 788.8,479.1 772.5,469.5 764.0,477.0 743.3,485.6 738.1,482.0 710.8,483.0 706.3,482.0 705.3,479.2 722.4,481.6 723.7,480.7 719.2,476.1 723.8,470.6 708.1,466.5 674.1,480.7 647.9,480.6 651.1,471.9 633.2,471.0 609.3,476.5 622.2,490.8 569.3,489.1 575.3,492.5 556.5,503.0 487.3,519.1 414.0,500.8 395.5,504.0 398.5,511.1 373.7,511.4 360.9,505.8 362.9,494.7 341.0,476.1 287.9,458.2 Z"/>
  </g>

  <text class="txt" x="140" y="62">C4 Context Box</text>
  <text class="label" x="730" y="465">Netherlands</text>
</svg>
